<svg xmlns="http://www.w3.org/2000/svg" width="112" height="23.184" viewBox="0 0 112 23.184">
  <g id="Group_1030" data-name="Group 1030" transform="translate(-31.322 -346.153)">
    <g id="Group_1030-2" data-name="Group 1030" transform="translate(31.322 349.111)">
      <path id="Path_348" data-name="Path 348" d="M50.815,384.008a.8.8,0,0,1-.8.8H36.584a.631.631,0,0,0-.642.784,8.536,8.536,0,0,0,1.408,3.331A4.937,4.937,0,0,0,41.1,390.4a6.394,6.394,0,0,0,3.47-.873,5.812,5.812,0,0,0,2.119-2.286.533.533,0,0,1,.777-.263l2.453,1.366a.7.7,0,0,1,.232,1.039,16.178,16.178,0,0,1-3.459,3.574,10.567,10.567,0,0,1-5.493,1.388,9.569,9.569,0,0,1-7.2-2.757,10.1,10.1,0,0,1-2.678-7.357,10,10,0,0,1,2.767-7.267A9.48,9.48,0,0,1,41.2,374.12a9.449,9.449,0,0,1,7.08,2.6,9.979,9.979,0,0,1,2.538,7.278Zm-5.262-2.094a.57.57,0,0,0,.578-.77,5.584,5.584,0,0,0-1.324-2.315,5.4,5.4,0,0,0-3.53-1.06,5.3,5.3,0,0,0-3.41,1.031,5.53,5.53,0,0,0-1.805,3.114Z" transform="translate(-31.322 -374.12)" fill="#FFFFFF"/>
    </g>
    <g id="Group_1031" data-name="Group 1031" transform="translate(55.296 346.153)">
      <path id="Path_349" data-name="Path 349" d="M216.423,368.564a.414.414,0,0,1-.413-.413V345.793a.414.414,0,0,1,.413-.413H219.9a.414.414,0,0,1,.413.413v11.353c0,.227.132.282.294.122l7.286-7.212a1.159,1.159,0,0,1,.707-.29h4.488c.227,0,.28.129.117.288l-7.935,7.713a.437.437,0,0,0-.022.6l8.791,9.893c.151.17.088.309-.139.309h-4.727a1.036,1.036,0,0,1-.684-.312l-7.905-9.074c-.149-.171-.271-.125-.271.1v8.871a.414.414,0,0,1-.413.413Z" transform="translate(-216.01 -345.38)" fill="#FFFFFF"/>
    </g>
    <g id="Group_1032" data-name="Group 1032" transform="translate(74.869 349.111)">
      <path id="Path_350" data-name="Path 350" d="M366.785,384.193a9.817,9.817,0,0,1,.783-3.9,10,10,0,0,1,2.251-3.263,10.135,10.135,0,0,1,3.331-2.161,10.846,10.846,0,0,1,7.942,0,10.165,10.165,0,0,1,3.362,2.221,9.987,9.987,0,0,1,2.26,3.272,9.708,9.708,0,0,1,.773,3.826,10.023,10.023,0,0,1-.763,3.908,9.542,9.542,0,0,1-2.231,3.231,10.736,10.736,0,0,1-3.431,2.251,10.572,10.572,0,0,1-7.892,0,10.447,10.447,0,0,1-5.612-5.5A9.854,9.854,0,0,1,366.785,384.193Zm16.162.04a6.275,6.275,0,0,0-1.685-4.432,5.584,5.584,0,0,0-8.239,0,6.638,6.638,0,0,0,0,8.864,5.573,5.573,0,0,0,8.23,0A6.251,6.251,0,0,0,382.947,384.233Z" transform="translate(-366.785 -374.12)" fill="#FFFFFF"/>
    </g>
    <g id="Group_1033" data-name="Group 1033" transform="translate(100.132 349.884)">
      <path id="Path_351" data-name="Path 351" d="M561.816,393.573a.414.414,0,0,1-.413-.413V375.187a.414.414,0,0,1,.413-.413h3.22a.414.414,0,0,1,.413.413v2.247c0,.227.119.27.265.1a12.814,12.814,0,0,1,2.769-2.518,9.228,9.228,0,0,1,4.243-.893,8.709,8.709,0,0,1,3.579.664,5.2,5.2,0,0,1,2.311,1.973,5.4,5.4,0,0,1,.714,1.8,20.114,20.114,0,0,1,.218,3.609v10.99a.414.414,0,0,1-.413.413h-3.516a.414.414,0,0,1-.413-.413v-8.832c0-.227-.013-.6-.03-.825,0,0-.271-3.7-.872-4.515a3.742,3.742,0,0,0-3.2-1.219,6.25,6.25,0,0,0-2.687.554,4.453,4.453,0,0,0-1.853,1.567,4.264,4.264,0,0,0-.665,1.736,21.43,21.43,0,0,0-.188,3.38v8.154a.414.414,0,0,1-.413.413Z" transform="translate(-561.403 -374.12)" fill="#FFFFFF"/>
    </g>
    <g id="Group_1034" data-name="Group 1034" transform="translate(122.619 349.111)">
      <path id="Path_352" data-name="Path 352" d="M734.634,384.193a9.809,9.809,0,0,1,.784-3.9,10.011,10.011,0,0,1,2.25-3.263A10.139,10.139,0,0,1,741,374.873a10.848,10.848,0,0,1,7.943,0,10.157,10.157,0,0,1,3.36,2.221,9.977,9.977,0,0,1,2.261,3.272,9.709,9.709,0,0,1,.774,3.826,10.023,10.023,0,0,1-.763,3.908,9.55,9.55,0,0,1-2.231,3.231,10.727,10.727,0,0,1-3.431,2.251,10.573,10.573,0,0,1-7.892,0,10.442,10.442,0,0,1-5.612-5.5A9.851,9.851,0,0,1,734.634,384.193Zm16.162.04a6.271,6.271,0,0,0-1.685-4.432,5.584,5.584,0,0,0-8.24,0,6.641,6.641,0,0,0,0,8.864,5.573,5.573,0,0,0,8.23,0A6.248,6.248,0,0,0,750.8,384.233Z" transform="translate(-734.634 -374.12)" fill="#FFFFFF"/>
    </g>
  </g>
</svg>
